# xmcd CD database file
#
# Track frame offsets:
#	150
#	17530
#	33295
#	56685
#	73540
#	80467
#	93385
#	115197
#	131962
#	140765
#	160237
#	172380
#	187357
#	198952
#
# Disc length: 2926 seconds
#
# Revision: 0
# Processed by: cddbd v1.5.1PL0 Copyright (c) Steve Scherf et al.
# Submitted via: CDex 1.51
#
DISCID=ce0b6c0e
DTITLE=Count Basie - April in Paris
DYEAR=1900
DGENRE=Jazz
TTITLE0=April in Paris
TTITLE1=Jumpin' at the Woodside
TTITLE2=Shinny Stocking
TTITLE3=How high the Moon
TTITLE4=One O'clock Jump
TTITLE5=Well Alright, Okay you win
TTITLE6=Lil Darlin
TTITLE7=Topsy
TTITLE8=Lullaby of Birdland
TTITLE9=Lester leaps in
TTITLE10=Walk don't run
TTITLE11=Nice 'n' Easy
TTITLE12=I left my Heart in Sanfranciso
TTITLE13=I can't stop loving You
EXTD=
EXTT0=
EXTT1=
EXTT2=
EXTT3=
EXTT4=
EXTT5=
EXTT6=
EXTT7=
EXTT8=
EXTT9=
EXTT10=
EXTT11=
EXTT12=
EXTT13=
PLAYORDER=
